<svg xmlns="http://www.w3.org/2000/svg" version="1.1" xmlns:xlink="http://www.w3.org/1999/xlink" xmlns:svgjs="http://svgjs.dev/svgjs" width="100%" height="100%" viewBox="0 0 1000 600"><rect width="1000" height="600" x="0" y="0" fill="#001122"/><g><rect width="333.3333333333333" height="333.3333333333333" rx="13.333333333333334" ry="13.333333333333334" y="77.77777014838344" fill="#CCBB" transform="matrix(2.2499999313354513,0,0,2.2499999313354517,0,-249.99999084472722)" x="55.55555725097656"/><path d="M206.80262260332103 272.320015366574Q206.80262260332103 291.7742382217267 213.46341987046983 302.1322181129318Q220.1242171376187 312.46085528489823 237.43642148835795 312.46085528489823Q254.7779685583358 312.46085528489823 264.0502678377148 301.6920773243537Q273.3519098363323 290.92329936380906 273.3519098363323 268.9456026541418L273.3519098363323 268.9456026541418L273.3519098363323 173.46439425192887L259.6195172326951 173.46439425192887L259.6195172326951 169.44444171624872L290.45871515240185 169.44444171624872L290.45871515240185 173.46439425192887L278.8389983339395 173.46439425192887L278.8389983339395 267.47846669221474Q278.8389983339395 293.681514972232 267.21928151547723 306.56296871795155Q255.59956469701496 319.4444224636711 226.13947458151964 319.4444224636711Q196.67938446602432 319.4444224636711 181.1277432695975 307.17916582196085Q165.60544479240923 294.94325189948916 165.60544479240923 265.1603918723699L165.60544479240923 265.1603918723699L165.60544479240923 173.46439425192887L153.98572797394695 173.46439425192887L153.98572797394695 169.44444171624872L220.53501520695826 169.44444171624872L220.53501520695826 173.46439425192887L206.80262260332103 173.46439425192887L206.80262260332103 272.320015366574Z " fill="#224466" transform="matrix(2.2499999313354513,0,0,2.2499999313354517,0,-249.99999084472722)"/><path d="MNaN 244.44444105360233 " fill="#aabbcc" transform="matrix(2.2499999313354513,0,0,2.2499999313354517,0,-249.99999084472722)"/></g></svg>